<svg width="94" height="99" viewBox="0 0 94 99" fill="none" xmlns="http://www.w3.org/2000/svg">
<path d="M83.1969 21.8013C83.1969 33.3341 73.8476 42.6833 62.3144 42.6833H27.5857C16.0529 42.6833 6.70366 33.3341 6.70366 21.8013V20.8821C6.70366 9.34929 16.0529 7.62939e-06 27.5857 7.62939e-06H62.3144C73.8476 7.62939e-06 83.1969 9.34929 83.1969 20.8821V21.8013Z" fill="#3C7A6F"/>
<path d="M42.0906 42.6833H27.5857C16.0529 42.6833 6.70366 33.3341 6.70366 21.8013V20.8821C6.70366 9.34929 16.0529 7.62939e-06 27.5857 7.62939e-06H44.588V31.5201H42.5014L42.0906 42.6833Z" fill="#2C5A58"/>
<path d="M40.2821 59.7881C40.2821 65.8616 35.3587 70.7854 29.2851 70.7854H10.9973C4.92375 70.7854 0 65.8616 0 59.7881V59.3044C0 53.2304 4.92375 48.3074 10.9973 48.3074H29.2851C35.3587 48.3074 40.2821 53.2304 40.2821 59.3044V59.7881Z" fill="#52988D"/>
<path d="M19.9625 70.7854H10.9973C4.92375 70.7854 0 65.8616 0 59.7881V59.3044C0 53.2304 4.92375 48.3074 10.9973 48.3074H19.9625V59.4232L19.2733 58.9638L17.9602 60.7853L19.9625 62.3447V70.7854Z" fill="#3C7A6F"/>
<path d="M94.0001 48.5777C94.0001 55.3735 88.4914 60.8826 81.6952 60.8826H61.2321C54.4367 60.8826 48.9264 55.3735 48.9264 48.5777V48.0359C48.9264 41.2405 54.4367 35.7315 61.2321 35.7315H81.6952C88.4914 35.7315 94.0001 41.2405 94.0001 48.0359V48.5777Z" fill="#52988D"/>
<path d="M72.5002 48.7875L71.3362 46.8668L48.1309 59.7813L47.0902 31.5201H42.5014L40.9589 73.4184L19.2734 58.9638L17.9604 60.7852L40.7694 78.5458L40.0346 98.5001H49.5577L48.3118 64.6855L72.5002 48.7875Z" fill="#784663"/>
<path d="M52.5658 57.313C50.3187 55.0839 48.9264 51.993 48.9264 48.5777V48.0359C48.9264 41.2405 54.4367 35.7314 61.2321 35.7314H71.1847V46.9512L52.5658 57.313Z" fill="#3C7A6F"/>
<path d="M44.949 98.5001H40.1884L42.6548 31.5201H45.2287L44.949 98.5001Z" fill="#4F3B56"/>
</svg>
